<?xml version="1.0" encoding="UTF-8" standalone="no"?>
<!DOCTYPE svg PUBLIC "-//W3C//DTD SVG 1.1//EN"
 "http://www.w3.org/Graphics/SVG/1.1/DTD/svg11.dtd">
<!-- Generated by graphviz version 2.47.2 (20210527.1257)
 -->
<!-- Title: snakemake_dag Pages: 1 -->
<svg width="217pt" height="332pt"
 viewBox="0.00 0.00 216.50 332.00" xmlns="http://www.w3.org/2000/svg" xmlns:xlink="http://www.w3.org/1999/xlink">
<g id="graph0" class="graph" transform="scale(1 1) rotate(0) translate(4 328)">
<title>snakemake_dag</title>
<polygon fill="white" stroke="transparent" points="-4,4 -4,-328 212.5,-328 212.5,4 -4,4"/>
<!-- 0 -->
<g id="node1" class="node">
<title>0</title>
<path fill="none" stroke="#56d88a" stroke-width="2" d="M84.5,-36C84.5,-36 54.5,-36 54.5,-36 48.5,-36 42.5,-30 42.5,-24 42.5,-24 42.5,-12 42.5,-12 42.5,-6 48.5,0 54.5,0 54.5,0 84.5,0 84.5,0 90.5,0 96.5,-6 96.5,-12 96.5,-12 96.5,-24 96.5,-24 96.5,-30 90.5,-36 84.5,-36"/>
<text text-anchor="middle" x="69.5" y="-15.5" font-family="sans" font-size="10.00">all</text>
</g>
<!-- 1 -->
<g id="node2" class="node">
<title>1</title>
<path fill="none" stroke="#56c1d8" stroke-width="2" d="M111,-324C111,-324 12,-324 12,-324 6,-324 0,-318 0,-312 0,-312 0,-300 0,-300 0,-294 6,-288 12,-288 12,-288 111,-288 111,-288 117,-288 123,-294 123,-300 123,-300 123,-312 123,-312 123,-318 117,-324 111,-324"/>
<text text-anchor="middle" x="61.5" y="-303.5" font-family="sans" font-size="10.00">read_though_removal</text>
</g>
<!-- 1&#45;&gt;0 -->
<g id="edge3" class="edge">
<title>1&#45;&gt;0</title>
<path fill="none" stroke="grey" stroke-width="2" d="M48.35,-287.91C41.58,-278.01 34.01,-264.96 30.5,-252 10.6,-178.55 40.03,-89.17 57.74,-45.54"/>
<polygon fill="grey" stroke="grey" stroke-width="2" points="61.02,-46.78 61.64,-36.2 54.56,-44.08 61.02,-46.78"/>
</g>
<!-- 2 -->
<g id="node3" class="node">
<title>2</title>
<path fill="none" stroke="#88d856" stroke-width="2" d="M171,-252C171,-252 52,-252 52,-252 46,-252 40,-246 40,-240 40,-240 40,-228 40,-228 40,-222 46,-216 52,-216 52,-216 171,-216 171,-216 177,-216 183,-222 183,-228 183,-228 183,-240 183,-240 183,-246 177,-252 171,-252"/>
<text text-anchor="middle" x="111.5" y="-231.5" font-family="sans" font-size="10.00">UMIex_tech_seq_removal</text>
</g>
<!-- 1&#45;&gt;2 -->
<g id="edge5" class="edge">
<title>1&#45;&gt;2</title>
<path fill="none" stroke="grey" stroke-width="2" d="M73.86,-287.7C79.73,-279.47 86.87,-269.48 93.34,-260.42"/>
<polygon fill="grey" stroke="grey" stroke-width="2" points="96.32,-262.28 99.28,-252.1 90.62,-258.21 96.32,-262.28"/>
</g>
<!-- 2&#45;&gt;0 -->
<g id="edge2" class="edge">
<title>2&#45;&gt;0</title>
<path fill="none" stroke="grey" stroke-width="2" d="M92.9,-215.76C83.97,-206.2 74.21,-193.53 69.5,-180 53.89,-135.18 58.99,-78.98 64.19,-46.22"/>
<polygon fill="grey" stroke="grey" stroke-width="2" points="67.69,-46.51 65.93,-36.06 60.79,-45.33 67.69,-46.51"/>
</g>
<!-- 3 -->
<g id="node4" class="node">
<title>3</title>
<path fill="none" stroke="#d8bc56" stroke-width="2" d="M132.5,-180C132.5,-180 90.5,-180 90.5,-180 84.5,-180 78.5,-174 78.5,-168 78.5,-168 78.5,-156 78.5,-156 78.5,-150 84.5,-144 90.5,-144 90.5,-144 132.5,-144 132.5,-144 138.5,-144 144.5,-150 144.5,-156 144.5,-156 144.5,-168 144.5,-168 144.5,-174 138.5,-180 132.5,-180"/>
<text text-anchor="middle" x="111.5" y="-159.5" font-family="sans" font-size="10.00">alignment</text>
</g>
<!-- 2&#45;&gt;3 -->
<g id="edge6" class="edge">
<title>2&#45;&gt;3</title>
<path fill="none" stroke="grey" stroke-width="2" d="M111.5,-215.7C111.5,-207.98 111.5,-198.71 111.5,-190.11"/>
<polygon fill="grey" stroke="grey" stroke-width="2" points="115,-190.1 111.5,-180.1 108,-190.1 115,-190.1"/>
</g>
<!-- 3&#45;&gt;0 -->
<g id="edge4" class="edge">
<title>3&#45;&gt;0</title>
<path fill="none" stroke="grey" stroke-width="2" d="M106.43,-143.87C99.24,-119.56 86.01,-74.82 77.49,-46.01"/>
<polygon fill="grey" stroke="grey" stroke-width="2" points="80.78,-44.79 74.58,-36.19 74.06,-46.77 80.78,-44.79"/>
</g>
<!-- 4 -->
<g id="node5" class="node">
<title>4</title>
<path fill="none" stroke="#d85656" stroke-width="2" d="M196.5,-108C196.5,-108 128.5,-108 128.5,-108 122.5,-108 116.5,-102 116.5,-96 116.5,-96 116.5,-84 116.5,-84 116.5,-78 122.5,-72 128.5,-72 128.5,-72 196.5,-72 196.5,-72 202.5,-72 208.5,-78 208.5,-84 208.5,-84 208.5,-96 208.5,-96 208.5,-102 202.5,-108 196.5,-108"/>
<text text-anchor="middle" x="162.5" y="-87.5" font-family="sans" font-size="10.00">bam_validation</text>
</g>
<!-- 3&#45;&gt;4 -->
<g id="edge7" class="edge">
<title>3&#45;&gt;4</title>
<path fill="none" stroke="grey" stroke-width="2" d="M124.11,-143.7C130.1,-135.47 137.38,-125.48 143.98,-116.42"/>
<polygon fill="grey" stroke="grey" stroke-width="2" points="146.98,-118.25 150.04,-108.1 141.32,-114.13 146.98,-118.25"/>
</g>
<!-- 4&#45;&gt;0 -->
<g id="edge1" class="edge">
<title>4&#45;&gt;0</title>
<path fill="none" stroke="grey" stroke-width="2" d="M139.51,-71.7C127.69,-62.8 113.11,-51.82 100.32,-42.2"/>
<polygon fill="grey" stroke="grey" stroke-width="2" points="102.32,-39.32 92.22,-36.1 98.11,-44.91 102.32,-39.32"/>
</g>
</g>
</svg>
